<?xml version="1.0" encoding="UTF-8" standalone="no"?>
<!-- Created with Inkscape (http://www.inkscape.org/) -->

<svg
   width="32"
   height="32"
   viewBox="0 0 8.4666667 8.4666667"
   version="1.1"
   id="svg5"
   inkscape:version="1.1 (c68e22c387, 2021-05-23)"
   sodipodi:docname="cathand.svg"
   xmlns:inkscape="http://www.inkscape.org/namespaces/inkscape"
   xmlns:sodipodi="http://sodipodi.sourceforge.net/DTD/sodipodi-0.dtd"
   xmlns="http://www.w3.org/2000/svg"
   xmlns:svg="http://www.w3.org/2000/svg">
  <sodipodi:namedview
     id="namedview7"
     pagecolor="#ffffff"
     bordercolor="#666666"
     borderopacity="0"
     inkscape:pageshadow="2"
     inkscape:pageopacity="0"
     inkscape:pagecheckerboard="false"
     inkscape:document-units="px"
     showgrid="true"
     inkscape:zoom="16.771208"
     inkscape:cx="14.548743"
     inkscape:cy="17.589669"
     inkscape:window-width="1453"
     inkscape:window-height="1040"
     inkscape:window-x="2007"
     inkscape:window-y="27"
     inkscape:window-maximized="0"
     inkscape:current-layer="layer1"
     units="px"
     inkscape:showpageshadow="false">
    <inkscape:grid
       type="xygrid"
       id="grid974" />
  </sodipodi:namedview>
  <defs
     id="defs2" />
  <g
     inkscape:label="レイヤー 1"
     inkscape:groupmode="layer"
     id="layer1">
    <path
       id="path846"
       style="fill:#040000;stroke:#000000;stroke-width:0.156811;stroke-linecap:round;stroke-linejoin:round"
       d="M 5.241225,1.0332555 A 0.67770613,1.107493 0.88821155 0 0 4.5684131,2.1659317 0.67770613,1.107493 0.88821155 0 0 5.2510116,3.2474451 0.67770613,1.107493 0.88821155 0 0 5.9239639,2.1147679 0.67770613,1.107493 0.88821155 0 0 5.241225,1.0332555 Z M 3.0583614,1.0826138 A 1.0974005,0.64704306 87.802533 0 0 2.4484683,2.1954273 1.0974005,0.64704306 87.802533 0 0 3.132186,3.2761864 1.0974005,0.64704306 87.802533 0 0 3.7422186,2.1632236 1.0974005,0.64704306 87.802533 0 0 3.0583614,1.0826138 Z M 1.2846096,2.7279795 a 0.96927797,0.56454167 80.69662 0 0 -0.077041,0.0048 A 0.96927797,0.56454167 80.69662 0 0 0.8141171,3.7890141 0.96927797,0.56454167 80.69662 0 0 1.5318111,4.6440505 0.96927797,0.56454167 80.69662 0 0 1.9252632,3.5878184 0.96927797,0.56454167 80.69662 0 0 1.2846096,2.7279664 Z M 7.14375,2.7601835 A 0.57595854,0.9961946 11.469661 0 0 6.4491258,3.6007752 0.57595854,0.9961946 11.469661 0 0 6.793502,4.7158443 0.57595854,0.9961946 11.469661 0 0 7.5662843,3.8856357 0.57595854,0.9961946 11.469661 0 0 7.221769,2.7705674 0.57595854,0.9961946 11.469661 0 0 7.14375,2.7601716 Z M 4.1899212,3.7893272 A 1.2439401,1.0774588 0 0 0 3.0071868,4.534814 2.090268,1.3373948 0 0 0 2.1081474,5.6334818 2.090268,1.3373948 0 0 0 2.137929,5.8539373 0.87110025,1.1802009 0 0 0 2.1370903,5.8837373 0.87110025,1.1802009 0 0 0 3.0081667,7.0639652 0.87110025,1.1802009 0 0 0 3.4676139,6.8857937 2.090268,1.3373948 0 0 0 4.1983111,6.9708156 2.090268,1.3373948 0 0 0 4.9557131,6.8791667 0.87110025,1.1802009 0 0 0 5.4064917,7.0502669 0.87110025,1.1802009 0 0 0 6.2775682,5.8700374 0.87110025,1.1802009 0 0 0 6.2750527,5.779296 2.090268,1.3373948 0 0 0 6.2886138,5.6334807 2.090268,1.3373948 0 0 0 5.3699979,4.5260869 1.2439401,1.0774588 0 0 0 4.1899212,3.7893272 Z" />
  </g>
</svg>
